<svg xmlns="http://www.w3.org/2000/svg" version="1.1" xmlns:xlink="http://www.w3.org/1999/xlink" xmlns:svgjs="http://svgjs.dev/svgjs" width="1440" height="560" preserveAspectRatio="none" viewBox="0 0 1440 560"><g mask="url(&quot;#SvgjsMask1002&quot;)" fill="none"><path d="M121.94 0C139.36 4.5 126.85 36.13 140 36.13C159.21 36.13 159.55 7 186.67 0C229.55 -11.07 233.34 0 280 0C350 0 350 0 420 0C490 0 490 0 560 0C630 0 630 0 700 0C770 0 770 0 840 0C910 0 910 0 980 0C1050 0 1050 0 1120 0C1190 0 1190 0 1260 0C1330 0 1330 0 1400 0C1470 0 1505 -35 1540 0C1575 35 1540 70 1540 140C1540 210 1540 210 1540 280C1540 350 1540 350 1540 420C1540 490 1569.17 519.17 1540 560C1519.17 589.17 1463.79 589.08 1440 560C1406.51 519.08 1437.59 489.05 1425.45 420C1417.59 375.3 1412.23 332.5 1400 332.5C1387.84 332.5 1385.76 375.69 1376.67 420C1362.42 489.44 1388.52 517.77 1353.33 560C1330.19 587.77 1306.66 560 1260 560C1190 560 1190 560 1120 560C1064.89 560 1060.12 571.18 1009.79 560C990.12 555.63 993.55 528.89 980 528.89C968.21 528.89 975.86 556.28 959.1 560C905.86 571.83 899.55 560 840 560C770 560 770 560 700 560C630 560 630 560 560 560C490 560 490 560 420 560C350 560 350 560 280 560C210 560 210 560 140 560C70 560 37.97 592.03 0 560C-32.03 532.99 -11.85 494.79 0 441.93C3.84 424.79 31.38 430.79 31.38 420C31.38 409.37 3.77 415.92 0 399.08C-11.92 345.92 0 339.54 0 280C0 210 0 210 0 140C0 70 -32.59 37.41 0 0C28.38 -32.59 69.36 -13.57 121.94 0" stroke="rgba(194, 51, 51, 0.58)" stroke-width="2"></path><path d="M420 98.3C405.21 98.3 395.19 118.97 395.19 140C395.19 162.1 405.1 184.55 420 184.55C437.5 184.55 460 161.95 460 140C460 118.82 437.61 98.3 420 98.3" stroke="rgba(194, 51, 51, 0.58)" stroke-width="2"></path><path d="M1260 104.05C1207.13 112.78 1157.69 123.62 1157.69 140C1157.69 156.05 1212.3 146.52 1260 168.91C1333.45 203.39 1344.24 261.86 1400 253.75C1443.6 247.41 1458.71 189.44 1458.71 140C1458.71 112.56 1433.44 106.05 1400 100C1334.08 88.07 1328.28 92.78 1260 104.05" stroke="rgba(194, 51, 51, 0.58)" stroke-width="2"></path><path d="M280 255.19C262.56 255.19 249.44 261.21 246.78 280C237.78 343.61 243.01 354.47 256.67 420C259.62 434.16 267 439.38 280 439.38C300.39 439.38 317.8 440.21 323.45 420C340.08 360.52 340.47 340.4 324.55 280C318.75 258 301.45 255.19 280 255.19" stroke="rgba(194, 51, 51, 0.58)" stroke-width="2"></path><path d="M700 220.89C675.18 220.89 672.03 249.3 646.8 280C602.03 334.49 607 339.39 560 391.28C543.6 409.39 520 406.49 520 420C520 432.77 537.55 440.34 560 443.83C627.55 454.34 637.53 457.78 700 448C713.62 445.87 708.52 434.77 712.17 420C729.3 350.77 745.6 346.14 741.56 280C739.52 246.59 722.56 220.89 700 220.89" stroke="rgba(194, 51, 51, 0.58)" stroke-width="2"></path><path d="M1120 353.89C1098.98 353.89 1074.23 389.23 1074.23 420C1074.23 444.32 1098.5 464.07 1120 464.07C1139.15 464.07 1155.52 443.69 1155.52 420C1155.52 388.6 1139.62 353.89 1120 353.89" stroke="rgba(194, 51, 51, 0.58)" stroke-width="2"></path><path d="M65.48 0C65.48 32.91 17.79 101.5 0 101.5C-14.95 101.5 -19.9 30.85 0 0C12.84 -19.9 65.48 -17.84 65.48 0" stroke="rgba(194, 51, 51, 0.58)" stroke-width="2"></path><path d="M146.67 140C211.37 81.29 208.3 74.09 280 25.71C312.03 4.09 316.07 6.99 354.12 0C386.07 -5.87 387.06 0 420 0C441.54 0 463.08 -5.56 463.08 0C463.08 6.35 434.98 5.14 420 23.83C378.88 75.14 391.08 86.3 350.89 140C321.08 179.83 317.97 178.36 280 210.89C236.26 248.36 207.38 232.75 187.46 280C163.3 337.3 166.4 361.36 191.85 420C212.67 467.98 228.81 480.14 280 493.23C342.89 509.31 351.17 472.17 420 478.33C491.17 484.7 493.16 491.44 560 518.3C594.77 532.27 623.23 548.64 623.23 560C623.23 569.49 591.62 560 560 560C490 560 490 560 420 560C350 560 350 560 280 560C210 560 210 560 140 560C70 560 45.39 584.61 0 560C-24.61 546.66 -18.53 512.39 0 484.1C27.33 442.39 91.72 451.55 91.72 420C91.72 388.92 26.74 399.66 0 358.85C-19.12 329.66 0 319.42 0 280C0 222.83 -31.39 194.21 0 165.67C38.61 130.57 73.47 164.37 140 152.73C146.8 151.54 141.37 144.8 146.67 140" stroke="rgba(194, 51, 51, 0.58)" stroke-width="2"></path><path d="M531.43 140C549.4 117.66 545.57 114.92 560 90C586.11 44.92 574.45 24.46 612.5 0C644.45 -20.54 656.25 0 700 0C744.68 0 775.8 -27.11 789.36 0C810.8 42.89 799.87 92.16 770 140C755.19 163.72 726.62 123.82 700 143.11C630.02 193.82 637.76 211.02 576.8 280C567.76 290.23 572.21 296.09 560 301.54C493.81 331.09 472.51 357.25 420 350C394.56 346.48 404.09 312.7 404.09 280C404.09 269.75 412.43 272.41 420 264.09C476.1 202.41 479.4 204.7 531.43 140" stroke="rgba(194, 51, 51, 0.58)" stroke-width="2"></path><path d="M843.68 140C907.24 69.49 906.74 67.25 972.22 0C974.9 -2.75 976.11 0 980 0C1050 0 1050 0 1120 0C1190 0 1190 0 1260 0C1330 0 1330 0 1400 0C1470 0 1505 -35 1540 0C1575 35 1540 70 1540 140C1540 210 1540 210 1540 280C1540 350 1540 350 1540 420C1540 460 1551.65 500 1540 500C1526.19 500 1505.88 463.68 1489.09 420C1463.59 353.68 1449.08 348.06 1455.42 280C1462.12 208.06 1529.63 197.02 1515.16 140C1501.92 87.79 1463.62 82.3 1400 61.54C1336.04 40.68 1329.95 55.68 1260 56.76C1189.95 57.85 1177.31 40.21 1120 65.88C1084.4 81.83 1099.35 104.5 1074.18 140C1029.35 203.22 1030.49 205.48 980 263.33C969.4 275.48 952 268.14 952 280C952 299.81 970.14 301.53 980 326.67C997.6 371.53 1006.92 376.29 1006.92 420C1006.92 438.51 991.94 434.4 980 451.11C941.92 504.4 953.23 523.94 906.87 560C883.23 578.38 873.43 560 840 560C794.29 560 748.57 583.14 748.57 560C748.57 520.92 788.58 490.34 840 435.56C854.29 420.34 880 429.35 880 420C880 409.91 851.35 415.64 840 396.67C809.47 345.64 796.25 338.79 796.25 280C796.25 213.79 817.51 213.07 840 146.67C841.22 143.07 841.13 142.83 843.68 140" stroke="rgba(194, 51, 51, 0.58)" stroke-width="2"></path><path d="M1135.56 280C1148.05 229.07 1199.58 206.96 1260 206.96C1311.95 206.96 1346.91 231.09 1360.3 280C1376.07 337.61 1347.9 354.16 1318.33 420C1297.75 465.82 1288.11 503.33 1260 503.33C1232.82 503.33 1231.68 462.92 1207.76 420C1169.46 351.26 1121.93 335.59 1135.56 280" stroke="rgba(194, 51, 51, 0.58)" stroke-width="2"></path><path d="M1084.26 560C1084.26 551.13 1100.39 528.89 1120 528.89C1147.22 528.89 1177.93 551.73 1177.93 560C1177.93 567.29 1148.97 560 1120 560C1102.13 560 1084.26 566.69 1084.26 560" stroke="rgba(194, 51, 51, 0.58)" stroke-width="2"></path><path d="M9.03 0C9.03 4.54 2.45 14 0 14C-2.06 14 -2.74 4.26 0 0C1.77 -2.74 9.03 -2.46 9.03 0" stroke="rgba(194, 51, 51, 0.58)" stroke-width="2"></path><path d="M230 140C230 121.33 258.32 97.14 280 97.14C296.61 97.14 306.58 120.11 306.58 140C306.58 154.83 295.28 166.58 280 166.58C256.99 166.58 230 156.05 230 140" stroke="rgba(194, 51, 51, 0.58)" stroke-width="2"></path><path d="M700 24.14C692.65 24.14 685.42 7.96 685.42 0C685.42 -4.11 692.71 0 700 0C707.44 0 714.89 -4.16 714.89 0C714.89 7.91 707.39 24.14 700 24.14" stroke="rgba(194, 51, 51, 0.58)" stroke-width="2"></path><path d="M935.79 140C935.79 117.52 959.99 93.33 980 93.33C997.37 93.33 1010.55 117.22 1010.55 140C1010.55 160.56 997.11 180 980 180C959.73 180 935.79 160.85 935.79 140" stroke="rgba(194, 51, 51, 0.58)" stroke-width="2"></path><path d="M1260 9.46C1234.76 6.39 1210 2.39 1210 0C1210 -2.34 1235 0 1260 0C1330 0 1330 0 1400 0C1443.75 0 1487.5 -5.67 1487.5 0C1487.5 5.87 1444.53 21.23 1400 23.08C1330.78 25.96 1329.76 17.93 1260 9.46" stroke="rgba(194, 51, 51, 0.58)" stroke-width="2"></path><path d="M0 224C40.36 224 115.86 255.73 115.86 280C115.86 303.04 44.01 318.62 0 318.62C-13.92 318.62 0 299.31 0 280C0 252 -17.57 224 0 224" stroke="rgba(194, 51, 51, 0.58)" stroke-width="2"></path><path d="M1200.37 280C1200.37 252.66 1231.05 245 1260 245C1284.89 245 1308.06 254.93 1308.06 280C1308.06 342.43 1286.55 420 1260 420C1232.71 420 1200.37 340.16 1200.37 280" stroke="rgba(194, 51, 51, 0.58)" stroke-width="2"></path><path d="M1528.33 280C1528.33 263.94 1536.99 248.89 1540 248.89C1542.82 248.89 1540 264.44 1540 280C1540 311.11 1542.89 342.22 1540 342.22C1537.06 342.22 1528.33 310.6 1528.33 280" stroke="rgba(194, 51, 51, 0.58)" stroke-width="2"></path><path d="M0 526.27C57.72 481.67 72.3 446.79 140 451.82C212.3 457.19 208.3 502.76 280 547.08C295.8 556.85 315 556.67 315 560C315 563.13 297.5 560 280 560C210 560 210 560 140 560C70 560 56.41 573.59 0 560C-13.59 556.73 -12.28 535.76 0 526.27" stroke="rgba(194, 51, 51, 0.58)" stroke-width="2"></path><path d="M820 560C820 551.45 830.96 532.78 840 532.78C848.27 532.78 854.63 550.76 854.63 560C854.63 564.37 847.32 560 840 560C830 560 820 565.06 820 560" stroke="rgba(194, 51, 51, 0.58)" stroke-width="2"></path></g><defs><mask id="SvgjsMask1002"><rect width="1440" height="560" fill="#ffffff"></rect></mask></defs></svg>