<svg xmlns="http://www.w3.org/2000/svg" version="1.1" xmlns:xlink="http://www.w3.org/1999/xlink" xmlns:svgjs="http://svgjs.dev/svgjs" width="1440" height="560" preserveAspectRatio="none" viewBox="0 0 1440 560"><g mask="url(&quot;#SvgjsMask1003&quot;)" fill="none"><path d="M0 9.77C0.34 3.64 1.74 0.42 7.78 0C71.74 -4.46 73.89 0 140 0C210 0 210 0 280 0C339.67 0 375.51 -32.11 399.34 0C427.47 37.89 378.24 71.4 383.92 140C388.57 196.09 382.11 238.81 420 249.38C470.15 263.37 495.16 226.79 560 189.12C589.3 172.1 608.28 168.37 608.28 140C608.28 95.54 593.54 83.15 560 43.45C534.4 13.15 490 11.75 490 0C490 -9.98 525 0 560 0C630 0 630 0 700 0C746.66 0 754.66 -16.43 793.33 0C824.66 13.32 815.98 30.31 840 59.5C873.57 100.31 869.58 105.16 908.51 140C939.58 167.81 947.95 184.8 980 184.8C1001.96 184.8 997.94 162.14 1016.52 140C1067.94 78.71 1055.07 50.93 1120 17.95C1176.81 -10.91 1193.5 24.15 1260 16.33C1269.78 15.18 1262.82 1.14 1272.56 0C1332.82 -7.03 1336.28 0 1400 0C1453.44 0 1506.88 -26.44 1506.88 0C1506.88 43.56 1453.44 70 1400 140C1400 140 1400 140 1400 140C1394.16 210 1388.33 211.92 1388.33 280C1388.33 288.59 1395.05 293.33 1400 293.33C1404.14 293.33 1401.03 284.93 1406.51 280C1471.03 221.99 1499.42 167.45 1540 167.45C1566.16 167.45 1540 223.73 1540 280C1540 350 1540 350 1540 420C1540 490 1575 525 1540 560C1505 595 1470 560 1400 560C1341.45 560 1327.42 580.03 1282.91 560C1257.42 548.53 1274.77 497 1260 497C1243.63 497 1250.36 546.62 1220.63 560C1180.36 578.12 1170.32 560 1120 560C1050 560 1050 560 980 560C910 560 910 560 840 560C781.66 560 723.33 585.8 723.33 560C723.33 521.64 769.58 459.37 840 431.67C897.92 408.88 915.37 463.22 980 459.02C1005.21 457.38 1019.67 438.97 1019.67 420C1019.67 401.96 1004.42 386.76 980 385C914.58 380.28 907.03 417.28 840 407.04C767.03 395.89 753.12 337.97 700 342.22C672.18 344.45 701.4 388.59 678.13 420C631.4 483.07 621.02 478.03 560 531.18C540.65 548.03 541.58 555.02 517.39 560C471.58 569.43 468.69 560 420 560C350 560 350 560 280 560C255.65 560 254.2 566.74 231.3 560C184.2 546.15 187.82 532.33 140 518.82C72.17 499.66 45.88 527.06 0 494.67C-24.12 477.65 0 457.34 0 420C0 376.92 -11.33 373.15 0 333.85C8.86 303.15 40.38 305.2 40.38 280C40.38 259.19 7.13 266.54 0 241.82C-13.06 196.54 0 190.91 0 140C0 74.88 -3.55 73.64 0 9.77" stroke="rgba(194, 51, 51, 0.58)" stroke-width="2"></path><path d="M0 91.16C18.39 91.16 60 117.33 60 140C60 160.84 19.52 178.18 0 178.18C-10.48 178.18 0 159.09 0 140C0 115.58 -11.61 91.16 0 91.16" stroke="rgba(194, 51, 51, 0.58)" stroke-width="2"></path><path d="M140 79.13C108.08 38.2 72.59 24 72.59 0C72.59 -15.56 106.3 0 140 0C210 0 210 0 280 0C310.99 0 331.57 -21.46 341.97 0C365.49 48.54 341.22 70.35 347.84 140C354.52 210.35 345.92 215.24 368.57 280C382 318.4 390.24 346.32 420 346.32C457.95 346.32 460.01 310.1 504 280C530.01 262.2 532.3 250.53 560 250.53C585.75 250.53 609.65 255.69 610.91 280C614.03 340.42 592.27 351.51 568.75 420C566.82 425.63 565.03 424.97 560 428.24C490.66 473.25 493.29 508.02 420 516.55C353.29 524.32 352.47 478 280 460.83C212.47 444.83 209.19 460.73 140 450.2C75.03 440.31 18.73 457.2 11.67 420C2.58 372.1 60.62 350.61 107.69 280C124.78 254.36 125.6 254.71 140 227.5C162.65 184.71 181.79 182.12 181.79 140C181.79 107.93 162.68 108.2 140 79.13" stroke="rgba(194, 51, 51, 0.58)" stroke-width="2"></path><path d="M668.62 140C651.11 72.76 638.04 51.59 649.6 0C653.73 -18.41 674.8 0 700 0C712.36 0 717.02 -8.88 724.71 0C777.68 61.12 770.17 73.09 821.33 140C827.81 148.48 830.66 145.39 840 150.77C910 191.12 918 234.58 980 231.47C1025.28 229.2 1016.88 185.4 1054.57 140C1086.88 101.08 1077 76.5 1120 62.82C1179.71 43.83 1200.9 93.47 1260 74.67C1299.62 62.06 1280.13 19.9 1317.44 0C1350.13 -17.44 1358.72 0 1400 0C1434.63 0 1469.25 -17.13 1469.25 0C1469.25 28.22 1439.28 50.05 1400 90.7C1371.63 120.05 1359.16 108.36 1333.96 140C1289.16 196.24 1297.65 203.67 1260 266.45C1255.67 273.67 1253.11 272.21 1250 280C1222.48 348.98 1231.3 353.39 1198.75 420C1166.3 486.39 1151.88 546 1120 546C1091.5 546 1113.28 473.55 1078 420C1043.28 367.31 1037.4 352.29 980 333.53C918.4 313.4 903.4 358.03 840 342.22C796.07 331.26 798.43 315.15 765.33 280C728.43 240.81 730.75 238.04 700 193.53C682.39 168.04 676.31 169.53 668.62 140" stroke="rgba(194, 51, 51, 0.58)" stroke-width="2"></path><path d="M1487.91 280C1505.86 251.85 1524.16 236.08 1540 236.08C1550.21 236.08 1540 258.04 1540 280C1540 350 1540 350 1540 420C1540 490 1575 525 1540 560C1505 595 1470 560 1400 560C1373.28 560 1346.55 576.65 1346.55 560C1346.55 522.21 1371.1 504.24 1400 451.11C1409.18 434.24 1413.93 437.08 1422.7 420C1457.88 351.52 1447.21 343.81 1487.91 280" stroke="rgba(194, 51, 51, 0.58)" stroke-width="2"></path><path d="M776.36 560C776.36 539.08 799.37 498.7 840 490C901.19 476.9 911.28 498.35 980 516.39C1044.62 533.35 1106.67 548.79 1106.67 560C1106.67 570.6 1043.34 560 980 560C910 560 910 560 840 560C808.18 560 776.36 574.08 776.36 560" stroke="rgba(194, 51, 51, 0.58)" stroke-width="2"></path><path d="M140 3.04C138.87 1.4 137.41 0.92 137.41 0C137.41 -0.6 138.7 0 140 0C210 0 210 0 280 0C282.29 0 284.09 -2.18 284.59 0C299.97 67.82 308.59 69.54 311.75 140C314.87 209.54 309.57 211.47 297.14 280C293.7 298.97 292.54 315 280 315C261.86 315 242.39 305.12 235.79 280C219.4 217.62 255.93 203.33 234.03 140C208.04 64.85 187.18 71.4 140 3.04" stroke="rgba(194, 51, 51, 0.58)" stroke-width="2"></path><path d="M1092.61 140C1106.05 123.63 1100.8 108.49 1120 107.69C1184.49 104.99 1191.15 117.96 1260 133C1265.11 134.12 1267.92 135.86 1267.92 140C1267.92 146.14 1264.6 147.19 1260 153.55C1213.97 217.19 1208.74 213.96 1166.67 280C1138.74 323.85 1155.88 372.93 1120 373.33C1062.54 373.96 1053.99 314.95 980 282.06C948.99 268.28 910 280.98 910 280C910 279.02 954.24 297.88 980 278.13C1045.55 227.88 1036.05 208.85 1092.61 140" stroke="rgba(194, 51, 51, 0.58)" stroke-width="2"></path><path d="M1400 41.41C1382.05 41.41 1362.31 12.38 1362.31 0C1362.31 -8.33 1381.15 0 1400 0C1415.8 0 1431.61 -7.82 1431.61 0C1431.61 12.89 1416.7 41.41 1400 41.41" stroke="rgba(194, 51, 51, 0.58)" stroke-width="2"></path><path d="M1517.3 420C1527.46 391.56 1534.11 364 1540 364C1545.46 364 1540 392 1540 420C1540 490 1563.33 513.33 1540 560C1528.33 583.33 1473.65 582.5 1470 560C1462.3 512.5 1492.46 489.56 1517.3 420" stroke="rgba(194, 51, 51, 0.58)" stroke-width="2"></path><path d="M829.39 560C829.39 556.51 832.72 548.33 840 548.33C869.85 548.33 903.64 557.06 903.64 560C903.64 562.89 871.82 560 840 560C834.69 560 829.39 562.35 829.39 560" stroke="rgba(194, 51, 51, 0.58)" stroke-width="2"></path></g><defs><mask id="SvgjsMask1003"><rect width="1440" height="560" fill="#ffffff"></rect></mask></defs></svg>